<?xml version="1.0" standalone="no"?>
<!DOCTYPE svg PUBLIC "-//W3C//DTD SVG 20010904//EN"
 "http://www.w3.org/TR/2001/REC-SVG-20010904/DTD/svg10.dtd">
<svg version="1.0" xmlns="http://www.w3.org/2000/svg"
 width="512.000000pt" height="512.000000pt" viewBox="0 0 512.000000 512.000000"
 preserveAspectRatio="xMidYMid meet">

<g transform="translate(0.000000,512.000000) scale(0.100000,-0.100000)"
fill="#000000" stroke="none">
<path d="M1001 4784 c-169 -45 -301 -180 -346 -351 -23 -86 -23 -3340 0 -3426
20 -77 58 -150 105 -200 l38 -42 4 -130 c4 -145 16 -182 80 -241 70 -67 81
-69 318 -69 237 0 248 2 318 69 50 46 74 101 80 179 l5 67 957 0 957 0 5 -67
c6 -78 30 -133 80 -179 70 -67 81 -69 318 -69 237 0 248 2 318 69 64 59 76 96
80 241 l4 130 40 43 c47 52 94 146 108 221 6 35 10 622 10 1700 0 1428 -2
1654 -15 1704 -45 173 -178 307 -350 352 -87 22 -3030 22 -3114 -1z m3065
-323 c61 -28 89 -73 89 -143 0 -61 -17 -94 -69 -132 -27 -21 -30 -21 -1504
-24 -1339 -2 -1481 -1 -1520 14 -100 38 -133 163 -65 245 52 62 -45 58 1558
58 1412 1 1472 0 1511 -18z m-1678 -633 c19 -19 17 -1561 -2 -1577 -10 -8
-188 -11 -669 -9 -644 3 -656 3 -683 24 -15 11 -37 33 -48 48 -21 27 -21 39
-24 699 -2 370 0 686 3 704 7 40 49 91 90 109 42 18 1315 20 1333 2z m1698
-14 c15 -11 37 -33 48 -48 21 -27 21 -36 21 -726 0 -690 0 -699 -21 -726 -11
-15 -33 -37 -48 -48 -27 -21 -39 -21 -683 -24 -481 -2 -659 1 -669 9 -19 16
-21 1558 -2 1577 10 10 163 12 669 10 646 -3 658 -3 685 -24z m-2495 -2096
c189 -103 225 -352 74 -503 -150 -151 -400 -115 -503 73 -153 279 150 583 429
430z m2224 11 c63 -30 123 -90 155 -154 20 -41 25 -65 25 -135 -1 -77 -4 -91
-34 -148 -38 -70 -69 -100 -145 -140 -44 -23 -63 -27 -136 -27 -100 1 -160 24
-225 90 -206 205 -50 557 240 542 47 -3 87 -12 120 -28z"/>
</g>
</svg>
