<?xml version="1.0" standalone="no"?>
<!DOCTYPE svg PUBLIC "-//W3C//DTD SVG 20010904//EN"
 "http://www.w3.org/TR/2001/REC-SVG-20010904/DTD/svg10.dtd">
<svg version="1.0" xmlns="http://www.w3.org/2000/svg"
 width="512.000000pt" height="512.000000pt" viewBox="0 0 512.000000 512.000000"
 preserveAspectRatio="xMidYMid meet">

<g transform="translate(0.000000,512.000000) scale(0.100000,-0.100000)"
fill="#000000" stroke="none">
<path d="M2250 5113 c-361 -19 -661 -68 -890 -143 -227 -74 -323 -141 -383
-268 -29 -61 -32 -76 -32 -162 0 -86 3 -101 32 -163 50 -105 99 -145 308 -251
l180 -91 32 -130 c18 -71 33 -137 33 -146 0 -10 -15 -20 -42 -29 -65 -19 -120
-55 -177 -115 -210 -222 -114 -595 176 -690 l51 -17 4 -106 c7 -182 44 -241
283 -449 l70 -61 -1 -148 c-1 -155 -15 -248 -56 -377 -15 -48 -28 -71 -42 -77
-12 -5 -102 -34 -201 -65 -336 -106 -616 -221 -798 -329 -237 -139 -445 -413
-509 -671 -20 -79 -23 -116 -23 -305 0 -211 0 -216 24 -249 13 -18 42 -42 65
-52 40 -18 116 -19 2206 -19 2090 0 2166 1 2206 19 23 10 52 34 65 52 24 33
24 38 24 249 0 189 -3 226 -23 305 -63 251 -268 527 -495 664 -200 121 -526
250 -1006 399 -19 5 -29 22 -48 77 -40 120 -57 229 -57 383 l-1 144 65 56 c36
30 104 94 151 141 109 110 130 157 137 314 4 106 4 107 31 114 14 3 52 19 85
35 246 123 305 462 115 663 -57 60 -112 96 -176 115 -28 9 -43 19 -43 29 0 9
15 75 33 146 l32 130 180 91 c209 106 258 146 308 251 29 62 32 77 32 163 0
86 -3 101 -32 162 -60 127 -155 194 -386 269 -302 99 -734 151 -1227 147 -124
-1 -250 -3 -280 -5z m650 -173 c343 -22 606 -65 816 -135 223 -74 289 -134
289 -265 0 -56 -5 -74 -30 -116 -29 -46 -40 -54 -197 -134 l-166 -85 -44 31
c-161 116 -392 172 -800 195 -532 31 -1009 -45 -1214 -193 l-46 -33 -166 85
c-155 79 -169 88 -196 133 -54 89 -43 198 27 269 88 87 413 183 758 224 281
32 671 42 969 24z m79 -696 c216 -25 408 -82 495 -147 19 -14 18 -17 -13 -144
l-33 -131 -36 -6 c-507 -88 -1157 -88 -1664 0 l-36 6 -31 125 c-31 121 -31
126 -14 146 46 52 263 122 453 148 236 31 625 32 879 3z m-1096 -624 c85 -11
233 -24 328 -30 343 -19 725 -8 1026 30 84 11 158 20 163 20 4 0 10 -59 12
-131 3 -129 3 -131 31 -155 37 -31 81 -31 112 1 23 22 25 32 25 115 0 56 4 90
10 90 40 0 121 -76 147 -138 8 -19 14 -60 14 -91 1 -137 -94 -241 -233 -257
-42 -5 -63 -13 -80 -31 -21 -23 -23 -36 -28 -171 -6 -169 -14 -193 -88 -264
-130 -125 -493 -434 -532 -452 -41 -19 -63 -21 -230 -21 -168 0 -189 2 -230
21 -40 19 -249 196 -496 420 -111 100 -117 116 -124 296 -5 135 -7 148 -28
171 -17 18 -38 26 -80 31 -67 8 -150 51 -181 95 -53 74 -69 179 -38 252 26 63
106 139 147 139 6 0 10 -34 10 -90 0 -83 2 -93 25 -115 31 -32 75 -32 112 -1
28 24 28 26 31 155 2 72 8 131 12 131 5 0 79 -9 163 -20z m347 -1604 c74 -40
165 -56 330 -56 227 0 317 27 433 131 l54 48 11 -118 c7 -65 25 -169 41 -232
20 -81 25 -116 17 -121 -6 -4 -133 -53 -283 -109 l-272 -102 -275 103 c-151
57 -279 106 -284 109 -6 4 2 53 20 121 15 63 34 167 40 231 l12 117 53 -48
c30 -26 76 -59 103 -74z m-185 -548 l166 -62 -103 -36 c-57 -20 -112 -41 -124
-48 -18 -10 -30 -1 -114 83 -52 52 -92 96 -89 98 6 5 71 25 86 26 7 1 87 -27
178 -61z m1251 51 c24 -6 44 -14 44 -17 0 -4 -41 -48 -92 -99 -82 -82 -94 -91
-112 -81 -12 7 -67 28 -123 48 l-102 36 162 61 c89 34 166 62 170 62 5 1 28
-4 53 -10z m-1573 -207 l88 -88 -57 -39 c-107 -74 -231 -206 -346 -368 -12
-17 -18 -17 -80 -6 -38 7 -68 17 -68 22 0 13 361 567 369 567 4 0 46 -40 94
-88z m1955 -191 c100 -153 182 -283 182 -288 0 -5 -30 -15 -67 -22 -63 -11
-69 -11 -81 6 -116 163 -240 295 -345 367 l-58 40 88 88 c48 48 90 88 94 88 3
0 88 -125 187 -279z m-2434 9 c-135 -208 -158 -248 -162 -289 -3 -35 1 -58 17
-88 27 -54 64 -79 141 -97 34 -8 64 -16 66 -19 2 -2 -10 -41 -27 -88 -34 -93
-64 -220 -75 -316 l-7 -63 -383 0 -384 0 0 148 c0 251 48 406 178 578 115 152
237 248 427 335 92 42 359 148 363 144 2 -2 -67 -112 -154 -245z m2651 182
c252 -101 387 -176 488 -271 136 -128 241 -296 282 -451 12 -45 19 -119 22
-242 l5 -178 -385 0 -384 0 -7 63 c-11 93 -41 222 -75 317 -16 46 -28 86 -26
88 1 2 31 10 65 18 34 8 75 24 91 35 56 40 84 129 60 192 -5 13 -77 128 -160
255 -83 128 -151 234 -151 237 0 5 47 -11 175 -63z m-1145 -47 c467 -76 846
-422 965 -880 12 -49 26 -118 30 -152 l7 -63 -85 0 -84 0 -12 73 c-61 372
-304 670 -659 803 -34 13 -78 24 -98 24 -47 0 -107 -32 -136 -72 -23 -33 -23
-36 -26 -344 l-3 -311 56 -48 c31 -26 65 -65 76 -86 l19 -39 -240 0 -240 0 19
39 c11 21 45 60 76 86 l55 47 0 300 c0 333 -2 346 -64 393 -51 39 -110 43
-189 15 -343 -123 -591 -413 -661 -772 l-21 -108 -83 0 -84 0 7 63 c10 90 49
230 88 323 215 502 749 796 1287 709z m-499 -889 c-52 -56 -78 -98 -96 -161
l-12 -40 -217 -3 -217 -2 6 37 c51 301 236 543 505 660 l75 32 3 -236 2 -236
-49 -51z m729 452 c222 -124 380 -354 425 -621 l6 -37 -216 2 -217 3 -17 50
c-23 64 -59 120 -105 164 l-36 35 0 238 0 238 53 -21 c28 -11 77 -34 107 -51z"/>
<path d="M1994 3477 c-39 -34 -39 -90 0 -123 15 -13 34 -24 42 -24 8 0 14 -6
14 -14 0 -8 11 -27 24 -42 42 -50 125 -31 140 32 4 13 13 24 22 24 8 0 26 11
39 25 31 30 33 83 6 116 -18 22 -27 24 -139 27 -114 3 -120 3 -148 -21z"/>
<path d="M2863 3490 c-48 -19 -58 -95 -18 -135 13 -14 31 -25 39 -25 9 0 18
-11 22 -24 15 -63 98 -82 140 -32 13 15 24 34 24 42 0 8 6 14 14 14 8 0 27 11
42 24 21 18 28 32 28 61 0 29 -7 43 -28 61 -25 22 -35 24 -134 23 -59 0 -117
-4 -129 -9z"/>
<path d="M2415 3045 c-35 -34 -33 -78 4 -116 29 -29 31 -29 141 -29 110 0 112
0 141 29 37 38 39 82 4 116 -23 24 -30 25 -145 25 -115 0 -122 -1 -145 -25z"/>
<path d="M2334 2706 c-38 -32 -38 -90 1 -123 25 -22 33 -23 221 -23 121 0 203
4 216 11 29 15 50 72 39 103 -20 52 -39 56 -253 56 -193 0 -197 0 -224 -24z"/>
<path d="M2453 2473 c-29 -6 -63 -49 -63 -80 0 -65 50 -93 170 -93 47 0 95 6
115 14 59 25 73 84 31 133 -23 26 -28 27 -127 29 -57 1 -114 0 -126 -3z"/>
</g>
</svg>
